<?xml version="1.0" encoding="UTF-8" standalone="no"?>
<svg
   height="48"
   viewBox="0 -960 960 960"
   width="48"
   version="1.1"
   id="svg322"
   xmlns="http://www.w3.org/2000/svg"
   xmlns:svg="http://www.w3.org/2000/svg">
  <defs
     id="defs326" />
  <g
     id="g1102"
     transform="matrix(1.1761639,0,0,1.1761639,-84.558672,37.494272)"
     style="fill:#ececec">
    <path
       d="m 674.611,-361.154 q -15.738,0 -25.02,-9.475 -9.283,-9.475 -9.283,-24.922 v -168.898 q 0,-15.447 9.42,-24.922 9.42,-9.475 24.503,-9.475 h 134.543 q 15.353,0 24.827,9.613 9.475,9.612 9.475,24.31 V -516 h -47.768 v -35.077 H 688.077 v 142.154 H 795.308 V -444 h 47.768 v 48.923 q 0,14.698 -9.612,24.31 -9.612,9.613 -24.31,9.613 z m -293.457,0 v -237.692 h 168.614 q 15.589,0 24.872,9.613 9.282,9.612 9.282,24.31 v 52.539 q 0,13.967 -7.862,22.598 -7.862,8.632 -22.214,9.786 14.352,1.154 22.214,9.786 7.862,8.631 7.862,22.598 v 52.539 q 0,14.698 -9.42,24.31 -9.42,9.613 -24.502,9.613 z m 47.769,-138.23 h 107.231 v -51.693 H 428.923 Z m 0,90.461 h 107.231 v -51.693 H 428.923 Z m -311.999,47.769 V -564.55 q 0,-15.346 9.55,-24.821 9.549,-9.475 25.82,-9.475 h 133.027 q 15.806,0 25.088,9.613 9.283,9.612 9.283,24.31 v 203.769 h -47.769 v -76.231 H 164.692 v 76.231 z m 47.768,-124.384 h 107.231 v -65.539 H 164.692 Z"
       id="path320"
       style="fill:#ececec;fill-opacity:1" />
    <rect
       style="fill:#ececec;fill-opacity:1;stroke:#ff2828;stroke-width:0"
       id="rect497"
       width="726.15997"
       height="48"
       x="116.92001"
       y="-329.12366" />
  </g>
</svg>
